<svg width="33" height="29" viewBox="0 0 33 29" fill="none" xmlns="http://www.w3.org/2000/svg">
<g filter="url(#filter0_d_107_449)">
<path d="M22.3864 0.557648H10.3944C10.0826 0.557648 9.78285 0.56964 9.49504 0.617608C6.4011 0.977368 4.39844 3.26784 4.39844 6.55365V14.9481C4.39844 18.5457 6.79684 20.9441 10.3944 20.9441H22.3864C25.9841 20.9441 28.3825 18.5457 28.3825 14.9481V6.55365C28.3825 2.95605 25.9841 0.557648 22.3864 0.557648ZM11.4497 13.7489C9.79484 13.7489 8.45174 12.4058 8.45174 10.7509C8.45174 9.09596 9.79484 7.75285 11.4497 7.75285C13.1046 7.75285 14.4477 9.09596 14.4477 10.7509C14.4477 12.4058 13.1046 13.7489 11.4497 13.7489ZM19.2445 14.0487H18.6449C18.1533 14.0487 17.7455 13.6409 17.7455 13.1493C17.7455 12.6576 18.1533 12.2499 18.6449 12.2499H19.2445C19.7362 12.2499 20.1439 12.6576 20.1439 13.1493C20.1439 13.6409 19.7362 14.0487 19.2445 14.0487ZM23.4417 14.0487H22.8421C22.3505 14.0487 21.9427 13.6409 21.9427 13.1493C21.9427 12.6576 22.3505 12.2499 22.8421 12.2499H23.4417C23.9334 12.2499 24.3411 12.6576 24.3411 13.1493C24.3411 13.6409 23.9334 14.0487 23.4417 14.0487ZM23.4417 9.25185H18.6449C18.1533 9.25185 17.7455 8.84413 17.7455 8.35245C17.7455 7.86078 18.1533 7.45305 18.6449 7.45305H23.4417C23.9334 7.45305 24.3411 7.86078 24.3411 8.35245C24.3411 8.84413 23.9334 9.25185 23.4417 9.25185Z" fill="#EFEEE0" fill-opacity="0.25" shape-rendering="crispEdges"/>
</g>
<defs>
<filter id="filter0_d_107_449" x="0.398438" y="0.557648" width="31.984" height="28.3864" filterUnits="userSpaceOnUse" color-interpolation-filters="sRGB">
<feFlood flood-opacity="0" result="BackgroundImageFix"/>
<feColorMatrix in="SourceAlpha" type="matrix" values="0 0 0 0 0 0 0 0 0 0 0 0 0 0 0 0 0 0 127 0" result="hardAlpha"/>
<feOffset dy="4"/>
<feGaussianBlur stdDeviation="2"/>
<feComposite in2="hardAlpha" operator="out"/>
<feColorMatrix type="matrix" values="0 0 0 0 0 0 0 0 0 0 0 0 0 0 0 0 0 0 0.25 0"/>
<feBlend mode="normal" in2="BackgroundImageFix" result="effect1_dropShadow_107_449"/>
<feBlend mode="normal" in="SourceGraphic" in2="effect1_dropShadow_107_449" result="shape"/>
</filter>
</defs>
</svg>
